<svg xmlns="http://www.w3.org/2000/svg" viewBox="0 0 112.08 81.85" fill="currentColor" role="img"><g><path d="M0.00 77.77L3.25 73.88C5.50 75.74 7.86 76.92 10.71 76.92C12.96 76.92 14.32 76.02 14.32 74.56L14.32 74.49C14.32 73.09 13.46 72.38 9.29 71.31C4.25 70.02 1.00 68.63 1.00 63.66L1.00 63.59C1.00 59.06 4.64 56.06 9.75 56.06C13.39 56.06 16.50 57.20 19.04 59.23L16.18 63.38C13.97 61.84 11.79 60.91 9.68 60.91C7.57 60.91 6.46 61.88 6.46 63.09L6.46 63.16C6.46 64.81 7.53 65.34 11.86 66.45C16.93 67.77 19.79 69.59 19.79 73.95L19.79 74.02C19.79 78.99 16.00 81.77 10.61 81.77C6.82 81.77 3.00 80.45 0.00 77.77"></path><path d="M21.84 71.95L21.84 71.88C21.84 66.41 26.02 61.91 31.88 61.91C35.49 61.91 37.74 63.13 39.52 65.13L36.20 68.70C34.99 67.42 33.77 66.59 31.84 66.59C29.13 66.59 27.20 68.99 27.20 71.81L27.20 71.88C27.20 74.81 29.09 77.17 32.06 77.17C33.88 77.17 35.13 76.38 36.45 75.13L39.63 78.35C37.77 80.38 35.63 81.85 31.81 81.85C26.05 81.85 21.84 77.42 21.84 71.95"></path><path d="M56.05 71.95L56.05 71.88C56.05 69.06 54.02 66.59 51.02 66.59C47.91 66.59 46.05 68.99 46.05 71.81L46.05 71.88C46.05 74.70 48.09 77.17 51.09 77.17C54.19 77.17 56.05 74.77 56.05 71.95M40.69 71.95L40.69 71.88C40.69 66.38 45.12 61.91 51.09 61.91C57.02 61.91 61.41 66.31 61.41 71.81L61.41 71.88C61.41 77.38 56.98 81.85 51.02 81.85C45.09 81.85 40.69 77.45 40.69 71.95"></path><path d="M63.53 74.67L63.53 62.27L68.96 62.27L68.96 72.95C68.96 75.52 70.17 76.84 72.24 76.84C74.32 76.84 75.64 75.52 75.64 72.95L75.64 62.27L81.07 62.27L81.07 81.42L75.64 81.42L75.64 78.70C74.39 80.31 72.78 81.77 70.03 81.77C65.92 81.77 63.53 79.06 63.53 74.67"></path><path d="M84.22 75.99L84.22 57.38L89.65 57.38L89.65 62.27L94.15 62.27L94.15 66.91L89.65 66.91L89.65 75.09C89.65 76.34 90.19 76.95 91.40 76.95C92.40 76.95 93.29 76.70 94.08 76.27L94.08 80.63C92.94 81.31 91.62 81.74 89.79 81.74C86.47 81.74 84.22 80.42 84.22 75.99"></path><path d="M96.54 78.88L98.87 75.31C100.94 76.81 103.12 77.59 104.90 77.59C106.47 77.59 107.19 77.02 107.19 76.17L107.19 76.09C107.19 74.92 105.33 74.52 103.22 73.88C100.54 73.09 97.51 71.84 97.51 68.13L97.51 68.06C97.51 64.16 100.65 61.98 104.51 61.98C106.94 61.98 109.58 62.81 111.65 64.20L109.58 67.95C107.69 66.84 105.79 66.16 104.40 66.16C103.08 66.16 102.40 66.74 102.40 67.48L102.40 67.56C102.40 68.63 104.22 69.13 106.29 69.84C108.97 70.74 112.08 72.02 112.08 75.52L112.08 75.59C112.08 79.84 108.90 81.77 104.76 81.77C102.08 81.77 99.08 80.88 96.54 78.88"></path><path d="M42.91 22.75C44.46 25.13 45.24 27.84 45.48 29.69L48.31 29.69C48.07 27.43 47.17 24.14 45.26 21.22C43.00 17.75 40.05 15.91 36.74 15.91L36.72 15.91C34.20 15.91 31.83 17.05 30.24 19.03C28.56 21.11 27.92 23.80 28.49 26.41L31.24 25.81C30.85 24.06 31.30 22.18 32.42 20.79C33.50 19.45 35.03 18.72 36.72 18.72L36.74 18.72C39.67 18.72 41.71 20.91 42.91 22.75"></path><path d="M63.32 42.43C62.23 40.91 61.42 39.09 61.07 37.34L58.22 37.34C58.43 38.70 59.02 40.96 60.55 43.35C59.59 44.95 57.87 46.54 56.04 47.49C56.04 47.49 56.04 47.49 56.04 47.49C56.04 47.49 56.04 47.49 56.04 47.49C54.22 46.54 52.49 44.95 51.53 43.35C53.06 40.96 53.65 38.70 53.87 37.34L51.01 37.34C50.66 39.09 49.86 40.91 48.76 42.43L48.28 43.10L48.62 43.84C49.81 46.44 52.57 49.05 55.47 50.33L56.04 50.58L56.04 50.58L56.04 50.58L56.61 50.33C59.51 49.05 62.27 46.44 63.46 43.84L63.80 43.10Z"></path><path d="M69.17 22.75C67.62 25.13 66.84 27.84 66.60 29.69L63.77 29.69C64.01 27.43 64.92 24.14 66.82 21.22C69.08 17.75 72.03 15.91 75.34 15.91L75.36 15.91C77.88 15.91 80.25 17.05 81.84 19.03C83.52 21.11 84.16 23.80 83.59 26.41L80.84 25.81C81.23 24.06 80.78 22.18 79.66 20.79C78.58 19.45 77.06 18.72 75.36 18.72L75.34 18.72C72.41 18.72 70.37 20.91 69.17 22.75"></path><path d="M51.13 29.69L53.96 29.69C53.61 26.43 52.33 23.59 51.20 21.07C50.06 18.56 49.00 16.19 49.01 13.83C49.04 11.11 50.58 8.34 53.16 6.42C53.61 6.08 54.89 5.10 56.04 4.04C57.19 5.10 58.47 6.08 58.92 6.42C61.50 8.34 63.05 11.11 63.07 13.83C63.08 16.19 62.02 18.56 60.89 21.07C59.75 23.59 58.47 26.43 58.12 29.69L60.95 29.69C61.30 27.00 62.39 24.57 63.45 22.23C64.71 19.43 65.90 16.79 65.88 13.81C65.85 10.22 63.88 6.62 60.61 4.17C60.22 3.88 58.22 2.35 57.07 1.11L56.04 0.00L55.01 1.11C53.86 2.35 51.86 3.88 51.47 4.17C48.20 6.62 46.24 10.22 46.20 13.81C46.18 16.79 47.37 19.43 48.63 22.23C49.69 24.57 50.78 27.00 51.13 29.69"></path><path d="M40.00 34.86L72.09 34.86L72.09 32.16L40.00 32.16Z"></path></g></svg>